<?xml version="1.0" standalone="no"?><!DOCTYPE svg PUBLIC "-//W3C//DTD SVG 1.1//EN" "http://www.w3.org/Graphics/SVG/1.1/DTD/svg11.dtd"><svg t="1630843379002" class="icon" viewBox="0 0 1024 1024" version="1.1" xmlns="http://www.w3.org/2000/svg" p-id="1299" xmlns:xlink="http://www.w3.org/1999/xlink" width="200" height="200"><defs><style type="text/css"></style></defs><path d="M573.44 970.752c-147.456 0-284.672-59.392-389.12-163.84C12.288 628.736 12.288 339.968 184.32 161.792c67.584-69.632 159.744-108.544 256-108.544S628.736 92.16 696.32 161.792c114.688 116.736 114.688 309.248 0 428.032-45.056 47.104-106.496 73.728-172.032 73.728s-126.976-26.624-172.032-73.728c-77.824-79.872-77.824-208.896 0-288.768 30.72-32.768 73.728-49.152 118.784-49.152 45.056 0 86.016 18.432 118.784 49.152 53.248 55.296 53.248 145.408 0 200.704-22.528 22.528-51.2 34.816-83.968 34.816s-61.44-12.288-83.968-34.816c-38.912-38.912-38.912-104.448 0-143.36 12.288-12.288 30.72-12.288 43.008 0 12.288 12.288 12.288 30.72 0 43.008-16.384 16.384-16.384 40.96 0 57.344 20.48 22.528 57.344 22.528 79.872 0 30.72-30.72 30.72-81.92 0-114.688-20.48-20.48-47.104-30.72-73.728-30.72-28.672 0-53.248 10.24-73.728 30.72-55.296 55.296-55.296 147.456 0 202.752 34.816 34.816 79.872 55.296 129.024 55.296s94.208-18.432 129.024-55.296c92.16-94.208 92.16-247.808 0-342.016-57.344-57.344-133.12-90.112-212.992-90.112-79.872 0-155.648 32.768-212.992 90.112-149.504 153.6-149.504 403.456 0 557.056 92.16 94.208 215.04 145.408 344.064 145.408 129.024 0 251.904-51.2 344.064-145.408 12.288-12.288 30.72-12.288 43.008 0 12.288 12.288 12.288 30.72 0 43.008-102.4 106.496-241.664 165.888-387.072 165.888z" fill="#d81e06" p-id="1300"></path></svg>